<svg width="13" height="12" viewBox="0 0 13 12" fill="none" xmlns="http://www.w3.org/2000/svg">
<path opacity="0.4" d="M11.1667 6C11.1667 3.5147 9.15203 1.5 6.66675 1.5C6.32305 1.5 5.98835 1.53855 5.66675 1.6115L5.66675 10.3885C5.98835 10.4615 6.32305 10.5 6.66675 10.5C9.15203 10.5 11.1667 8.48528 11.1667 6Z" fill="#45D483"/>
<path d="M5.66675 10.4525C5.89525 10.4838 6.129 10.5 6.36675 10.5C9.01771 10.5 11.1667 8.48528 11.1667 6C11.1667 3.5147 9.01771 1.5 6.36675 1.5C6.129 1.5 5.89525 1.5162 5.66675 1.5475" stroke="#45D483" stroke-linecap="round"/>
<path d="M2.16675 6L7.16675 6M2.16675 6C2.16675 6.3501 3.1639 7.00423 3.41675 7.25M2.16675 6C2.16675 5.6499 3.1639 4.99575 3.41675 4.75" stroke="#45D483" stroke-linecap="round" stroke-linejoin="round"/>
</svg>
