<svg width="13" height="12" viewBox="0 0 13 12" fill="none" xmlns="http://www.w3.org/2000/svg">
<path opacity="0.4" d="M1.83337 6C1.83337 8.4853 3.84809 10.5 6.33337 10.5C6.67707 10.5 7.01177 10.4615 7.33337 10.3885V1.61151C7.01177 1.53853 6.67707 1.5 6.33337 1.5C3.84809 1.5 1.83337 3.51472 1.83337 6Z" fill="#F54180"/>
<path d="M7.33337 1.54751C7.10487 1.51621 6.87112 1.5 6.63337 1.5C3.98241 1.5 1.83337 3.51472 1.83337 6C1.83337 8.4853 3.98241 10.5 6.63337 10.5C6.87112 10.5 7.10487 10.4838 7.33337 10.4525" stroke="#F54180" stroke-linecap="round"/>
<path d="M10.8334 6H5.83337M10.8334 6C10.8334 5.6499 9.83622 4.99577 9.58337 4.75M10.8334 6C10.8334 6.3501 9.83622 7.00425 9.58337 7.25" stroke="#F54180" stroke-linecap="round" stroke-linejoin="round"/>
</svg>
