<svg width="12" height="12" viewBox="0 0 12 12" fill="none" xmlns="http://www.w3.org/2000/svg">
<g clip-path="url(#clip0_25_2549)">
<path opacity="0.4" d="M2.97313 10.3073C1.28592 9.01 1.03734 7.17005 1.00071 5.25005C0.984895 4.42065 1.22563 4.25 2.32959 4.25H7.6704C8.77435 4.25 9.0151 4.42065 8.9993 5.25005C8.96265 7.17005 8.71405 9.01 7.02685 10.3073C6.5467 10.6764 6.14155 10.75 5.4597 10.75H4.54032C3.85843 10.75 3.45329 10.6764 2.97313 10.3073Z" fill="#9353D3"/>
<path d="M9.12525 5.25H9.82015C10.7459 5.25 11.021 5.38275 10.9987 6.0419C10.9618 7.1337 10.4695 8.40235 8.5 8.75" stroke="#9353D3" stroke-linecap="round"/>
<path d="M2.97313 10.3073C1.28592 9.01 1.03734 7.17005 1.00071 5.25005C0.984895 4.42065 1.22563 4.25 2.32959 4.25H7.6704C8.77435 4.25 9.0151 4.42065 8.9993 5.25005C8.96265 7.17005 8.71405 9.01 7.02685 10.3073C6.5467 10.6764 6.14155 10.75 5.4597 10.75H4.54032C3.85843 10.75 3.45329 10.6764 2.97313 10.3073Z" stroke="#9353D3" stroke-linecap="round"/>
<path d="M5.65445 1.25C5.3811 1.4193 5.0006 2 5.0006 2.75M3.76986 2C3.76986 2 3.5 2.25 3.5 2.75M7.0006 2C6.86395 2.08465 6.75 2.5 6.75 2.75" stroke="#9353D3" stroke-linecap="round" stroke-linejoin="round"/>
</g>
<defs>
<clipPath id="clip0_25_2549">
<rect width="12" height="12" fill="white"/>
</clipPath>
</defs>
</svg>
