<svg width="25" height="24" viewBox="0 0 25 24" fill="none" xmlns="http://www.w3.org/2000/svg">
<path opacity="0.4" fill-rule="evenodd" clip-rule="evenodd" d="M3 9.75757V14.2103C3 16.8583 4.35602 19.1977 6.42857 20.6058C6.94801 21.0321 8.36093 21.8924 9.85714 21.9236C11.7654 22.1895 13.623 21.7471 15.1599 20.8167C14.4429 20.0938 14 19.0986 14 18C14 15.7909 15.7909 14 18 14C18.3453 14 18.6804 14.0438 19 14.126V10.3333C19 8.394 18.6455 7.49149 18.3784 6.81165C18.3241 6.67353 18.2735 6.5446 18.2301 6.41803C16.136 2.12432 10.3995 0.664088 6.42857 3.36201C5.67678 4.03764 4.08996 5.6 3.75704 6.44444C3.27144 7.44988 3 8.57285 3 9.75757ZM7 10.6545V13.3262C7 14.915 7.67801 16.3186 8.71429 17.1635C8.974 17.4193 9.68047 17.9354 10.4286 17.9542C12.792 18.3493 15 16.1371 15 13.3262V11C15 9.8364 14.8227 9.2949 14.6892 8.88699C14.6621 8.80412 14.6367 8.72676 14.6151 8.65082C13.568 6.07459 10.6998 5.19845 8.71429 6.8172C8.33839 7.22258 7.54498 8.16 7.37852 8.66667C7.13572 9.26993 7 9.94371 7 10.6545Z" fill="white"/>
<path d="M18 16.6667V18M18 18V19.3333M18 18H19.3333M18 18H16.6667M22 18C22 20.2091 20.2091 22 18 22C15.7909 22 14 20.2091 14 18C14 15.7909 15.7909 14 18 14C20.2091 14 22 15.7909 22 18Z" stroke="white" stroke-width="1.5" stroke-linecap="round"/>
<path d="M6.42857 20.6058C4.35602 19.1977 3 16.8583 3 14.2103V9.75757C3 8.57285 3.27144 7.44988 3.75704 6.44444M9.85714 21.9236C10.7589 22.0493 11.6494 22.0167 12.5 21.8493M18.2301 6.41803C16.136 2.12432 10.3995 0.664088 6.42857 3.36201M19 10.3333V11.5M11 6C13.2091 6 15 7.8804 15 10.2M7.38493 8.4C7.13811 8.94555 7 9.55584 7 10.2V13.8C7 16.1196 8.79086 18 11 18C11.1693 18 11.3362 17.989 11.5 17.9675M11 10.5V13.5" stroke="white" stroke-width="1.5" stroke-linecap="round" stroke-linejoin="round"/>
</svg>
