<svg width="20" height="20" viewBox="0 0 20 20" fill="none" xmlns="http://www.w3.org/2000/svg">
<path opacity="0.4" fill-rule="evenodd" clip-rule="evenodd" d="M18.3333 9.99999C18.3333 9.73707 18.2067 9.55941 17.9533 9.20416C16.8149 7.60786 13.9077 4.16666 9.99999 4.16666C6.09231 4.16666 3.18507 7.60786 2.04669 9.20416C1.79333 9.55941 1.66666 9.73707 1.66666 9.99999C1.66666 10.2629 1.79333 10.4406 2.04669 10.7958C3.18507 12.3922 6.09231 15.8333 9.99999 15.8333C13.9077 15.8333 16.8149 12.3922 17.9533 10.7958C18.2067 10.4406 18.3333 10.2629 18.3333 9.99999ZM9.99999 7.49999C11.3807 7.49999 12.5 8.61924 12.5 9.99999C12.5 11.3807 11.3807 12.5 9.99999 12.5C8.61924 12.5 7.49999 11.3807 7.49999 9.99999C7.49999 8.61924 8.61924 7.49999 9.99999 7.49999Z" fill="#52525B"/>
<path d="M17.9533 9.20416C18.2067 9.55941 18.3333 9.73707 18.3333 9.99999C18.3333 10.2629 18.2067 10.4406 17.9533 10.7958C16.8149 12.3922 13.9077 15.8333 9.99999 15.8333C6.09231 15.8333 3.18507 12.3922 2.04669 10.7958C1.79333 10.4406 1.66666 10.2629 1.66666 9.99999C1.66666 9.73707 1.79333 9.55941 2.04669 9.20416C3.18507 7.60786 6.09231 4.16666 9.99999 4.16666C13.9077 4.16666 16.8149 7.60786 17.9533 9.20416Z" stroke="#52525B" stroke-width="1.25"/>
<path d="M12.5 10C12.5 8.61925 11.3807 7.5 10 7.5C8.61925 7.5 7.5 8.61925 7.5 10C7.5 11.3807 8.61925 12.5 10 12.5C11.3807 12.5 12.5 11.3807 12.5 10Z" stroke="#52525B" stroke-width="1.25"/>
</svg>
