<svg width="32" height="32" viewBox="0 0 32 32" fill="none" xmlns="http://www.w3.org/2000/svg">
<path d="M9.41632 8.9391C9.41632 5.40433 12.29 2.53064 15.8248 2.53064C19.3596 2.53064 22.2332 5.40433 22.2332 8.9391C22.2198 12.4064 19.508 15.2126 16.0541 15.3341H15.9597C15.8787 15.3206 15.7708 15.3206 15.6629 15.3341C12.1281 15.2126 9.41632 12.4064 9.41632 8.9391Z" fill="#338EF7"/>
<path d="M8.98436 18.9213C12.7755 16.4119 18.9141 16.4119 22.6782 18.9213C24.3781 20.0546 25.309 21.5926 25.3225 23.252C25.3225 24.925 24.3781 26.463 22.6782 27.6098C20.7894 28.878 18.3069 29.5121 15.8245 29.5121C13.3421 29.5121 10.8597 28.878 8.97087 27.6098C7.27094 26.4765 6.32654 24.9385 6.32654 23.279C6.32654 21.6196 7.27094 20.0681 8.98436 18.9213Z" fill="#338EF7"/>
</svg>
